<svg width="565" height="543" viewBox="0 0 565 543" fill="none" xmlns="http://www.w3.org/2000/svg">
<g clip-path="url(#clip0)">
<path opacity="0.1" d="M116.826 517.878C141.953 448.691 99.5301 377.844 26.5084 357.393C-49.5128 336.102 -126.821 373.416 -153.972 448.176C-176.747 510.889 -139.028 579.411 -63.9839 600.429C14.1255 622.319 92.0223 586.177 116.826 517.878Z" fill="#096AD8"/>
<path opacity="0.1" d="M-139.429 545.194C-106.814 603.162 -26.0059 626.493 44.5607 593.075C117.999 558.308 145.932 483.507 110.4 420.373" fill="#0D56BF"/>
<path opacity="0.1" d="M-282.128 551.067C-310.441 486.994 -313.152 442.053 -291.652 382.828C-269.782 322.584 -229.041 275.207 -170.533 243.656C-93.7367 201.904 -9.46606 192.014 75.9966 215.96C154.294 237.898 214.584 284.98 250.661 352.253C283.717 412.475 289.083 474.905 266.21 537.913C244.363 598.093 202.739 644.802 146.693 657.169L370.125 719.772C434.778 667.726 482.665 609.116 510.158 533.381C587.213 321.12 460.509 96.6236 227.338 31.2917C-5.81983 -34.0363 -256.188 85.6086 -333.243 297.87C-361.665 376.165 -359.037 457.392 -339.1 529.883L-340.82 534.622L-282.128 551.067Z" fill="#2A98F2"/>
<path opacity="0.1" d="M227.155 31.8053C-6.00496 -33.5235 -256.288 85.8808 -333.343 298.145C-361.766 376.441 -359.045 457.414 -339.112 529.919L-340.828 534.645L-282.136 551.09C-310.449 487.017 -313.159 442.074 -291.66 382.849C-269.79 322.604 -229.048 275.226 -170.539 243.676C-93.7423 201.923 -9.47087 192.033 75.9926 215.979C154.291 237.917 214.581 285 250.659 352.273C283.715 412.497 289.081 474.927 266.208 537.936C244.361 598.117 202.736 644.827 146.69 657.193L370.124 719.797C434.778 667.751 482.665 609.14 510.159 533.404" fill="#1580EA"/>
<path opacity="0.1" d="M223.492 29.7272C-9.41374 -35.5141 -257.95 84.6758 -334.926 296.668C-363.318 374.86 -359.131 456.683 -339.215 529.077L-340.929 533.797L-282.301 550.22C-310.583 486.232 -313.29 441.351 -291.814 382.204C-269.968 322.04 -229.271 274.726 -170.826 243.218C-94.1122 201.521 -9.93256 191.644 75.438 215.558C153.651 237.467 213.876 284.486 249.914 351.67C282.934 411.813 288.295 474.159 265.446 537.084C243.623 597.184 202.044 643.831 146.059 656.181L362.651 716.853" fill="#096AD8"/>
</g>
<defs>
<clipPath id="clip0">
<rect width="611" height="543" fill="white" transform="translate(-46)"/>
</clipPath>
</defs>
</svg>
