<svg width="681" height="443" viewBox="0 0 681 443" fill="none" xmlns="http://www.w3.org/2000/svg">
<path opacity="0.2" d="M779.551 -340.469C837.389 -291.158 862.289 -249.253 872.194 -183.33C882.269 -116.273 868.68 -53.4906 830.961 1.70877C781.622 74.4882 709.555 119.928 619.518 133.455C537.029 145.849 458.449 126.465 391.919 77.4024C331.668 33.8051 295.616 -23.7232 285.079 -93.8575C275.014 -160.844 289.743 -223.363 334.784 -259.13L99.3916 -223.763C66.2836 -146.303 51.7703 -69.708 64.436 14.5921C99.934 250.859 327.717 411.894 573.37 374.986C819.009 338.08 988.083 116.592 952.585 -119.675C939.491 -206.825 896.563 -283.533 842.177 -344.484L841.384 -349.759L779.551 -340.469Z" fill="#2A98F2"/>
<path opacity="0.2" d="M573.282 374.403C818.921 337.497 988.036 116.279 952.538 -119.988C939.444 -207.138 896.558 -283.563 842.17 -344.527L841.379 -349.788L779.546 -340.498C837.384 -291.188 862.284 -249.282 872.189 -183.36C882.264 -116.303 868.675 -53.5201 830.956 1.6793C781.617 74.4587 709.55 119.898 619.513 133.426C537.024 145.819 458.445 126.436 391.914 77.373C331.663 33.7757 295.611 -23.7526 285.074 -93.8868C275.009 -160.873 289.738 -223.392 334.779 -259.159L99.3868 -223.793C66.2788 -146.332 51.7655 -69.7374 64.4312 14.5627" fill="#1580EA"/>
<path opacity="0.2" d="M576.928 374.984C822.566 338.077 989.861 116.582 954.361 -119.699C941.267 -206.849 896.558 -283.566 842.172 -344.516L841.381 -349.777L779.548 -340.487C837.386 -291.176 862.286 -249.271 872.191 -183.348C882.266 -116.291 868.677 -53.5088 830.958 1.69062C781.619 74.4701 709.552 119.909 619.515 133.437C537.026 145.831 458.447 126.447 391.916 77.3843C331.665 33.7869 295.613 -23.7413 285.076 -93.8755C275.011 -160.862 289.74 -223.381 334.781 -259.148L106.348 -224.827" fill="#096AD8"/>
</svg>
